# 🎯 视频播放问题分析报告

## 📋 问题现象
- **用户反馈**: 首页频道列表播放视频报错
- **时间**: 昨天还能播放，今天报错
- **RTMP源**: rtmp://push228.dodool.com.cn/55/19?auth_key=1413753727-0-0-12f6098bc64f30e11339cd4799325c5f
- **验证**: VLC播放器可以正常播放该RTMP源

## ✅ 技术验证结果

### 系统组件状态检查
1. **✅ RTMP源连接**: VPS上FFmpeg可以正常连接和解析
   ```
   Input #0, flv, from 'rtmp://push228.dodool.com.cn/55/19?...'
   Stream #0:0: Video: h264 (Main), yuvj420p(pc, progressive), 704x576, 25 fps
   Stream #0:1: Audio: pcm_mulaw, 8000 Hz, mono, s16, 64 kb/s
   ```

2. **✅ VPS转码服务**: 完全正常工作
   - PM2进程状态: online
   - API响应: 正常
   - FFmpeg转码: 成功启动

3. **✅ 播放API**: 完全正常
   ```json
   {
     "status": "success",
     "message": "Started watching successfully",
     "data": {
       "channelId": "frontend_test_094257",
       "hlsUrl": "https://yoyo-vps.5202021.xyz/hls/frontend_test_094257/playlist.m3u8",
       "timestamp": 1760492697646
     }
   }
   ```

4. **✅ HLS文件生成**: 正常
   - playlist.m3u8: 正常生成
   - segment000.ts: 正常生成
   - Web访问: HTTP 200响应

5. **✅ 代理状态**: 正确关闭
   - 代理总开关: 关闭状态
   - 透明代理规则: 未发现
   - V2Ray进程: 未运行
   - 系统运行在直连模式

### 完整播放流程验证
```
用户请求 → VPS API → FFmpeg转码 → HLS生成 → Web访问
    ✅        ✅        ✅         ✅       ✅
```

## 🔍 问题根本原因分析

### 排除的原因
- ❌ **不是RTMP源问题**: 源本身可用，VPS可以连接
- ❌ **不是系统架构问题**: 所有组件工作正常
- ❌ **不是代码变更问题**: 最近的代理修改不影响播放
- ❌ **不是网络问题**: 直连模式工作正常

### 可能的真实原因
1. **前端配置问题**: 
   - 前端使用的RTMP URL可能与测试的不同
   - 可能存在配置缓存问题

2. **前端请求格式问题**:
   - 前端发送的API请求参数可能有误
   - JSON格式或Content-Type问题

3. **浏览器缓存问题**:
   - 前端可能缓存了旧的配置
   - 需要清除浏览器缓存

4. **频道配置数据问题**:
   - 数据库中存储的RTMP URL可能过期
   - 需要更新频道配置

## 💡 解决方案

### 方案1: 检查前端配置 (推荐)
1. **清除浏览器缓存**
   - 按F12打开开发者工具
   - 右键刷新按钮 → "清空缓存并硬性重新加载"

2. **检查网络请求**
   - 在Network标签页监控播放请求
   - 查看实际发送的RTMP URL是否正确

3. **检查控制台错误**
   - 查看Console标签页的错误信息
   - 确认具体的错误原因

### 方案2: 更新频道配置
1. **登录管理后台**
   - 访问: https://yoyo.5202021.xyz
   - 进入频道管理页面

2. **更新RTMP URL**
   - 确保使用正确的RTMP源地址
   - 保存并测试播放

### 方案3: 直接API测试
使用以下PowerShell命令测试特定频道:
```powershell
$testData = @{
    channelId = "your_channel_id"
    rtmpUrl = "rtmp://push228.dodool.com.cn/55/19?auth_key=1413753727-0-0-12f6098bc64f30e11339cd4799325c5f"
} | ConvertTo-Json

Invoke-RestMethod -Uri "https://yoyo-vps.5202021.xyz/api/simple-stream/start-watching" -Method POST -Body $testData -ContentType "application/json"
```

## 🛠️ 调试步骤

### 步骤1: 前端调试
1. 打开浏览器开发者工具 (F12)
2. 切换到Network标签页
3. 点击播放按钮
4. 查看发送的API请求详情
5. 检查请求中的RTMP URL是否正确

### 步骤2: 后端验证
1. 检查VPS日志中的RTMP URL
2. 确认FFmpeg启动参数
3. 验证HLS文件生成

### 步骤3: 配置检查
1. 验证频道配置数据
2. 确认RTMP认证密钥有效性
3. 检查系统时间同步

## 📊 预期结果

### 如果是前端问题
- 清除缓存后播放恢复正常
- Network标签页显示正确的API请求

### 如果是配置问题  
- 更新配置后播放立即恢复
- 所有频道都能正常播放

### 如果是其他问题
- 通过开发者工具可以看到具体错误信息
- 根据错误信息进行针对性修复

## 🎯 结论

**系统架构和后端服务完全正常，问题很可能出现在前端层面或配置数据层面。**

建议优先检查:
1. 浏览器缓存和前端请求
2. 频道配置数据的准确性
3. 前端JavaScript控制台的错误信息

通过前端调试工具可以快速定位具体问题所在。
